<svg width="78" height="75" viewBox="0 0 78 75" fill="none" xmlns="http://www.w3.org/2000/svg">
<rect width="57.039" height="56.8636" rx="13" transform="matrix(0.999995 0.00316773 -0.256107 0.966649 20.5092 19.2881)" fill="#333333" />
<rect width="57.039" height="56.8636" rx="13" transform="matrix(0.999995 0.00316773 -0.256107 0.966649 20.5092 19.2881)" fill="url(#paint0_linear_19_34)"/>
<rect width="57.039" height="56.8636" rx="13" transform="matrix(0.999995 0.00316773 -0.256107 0.966649 20.5092 19.2881)" fill="url(#paint1_linear_19_34)"/>
<ellipse rx="25.8794" ry="25.8" transform="matrix(0.999976 0.00696831 -0.259802 0.965662 33.5506 36.2656)" fill="#F4C95D"/>
<ellipse rx="25.8794" ry="25.8" transform="matrix(0.999976 0.00696831 -0.259802 0.965662 33.5506 36.2656)" fill="url(#paint2_linear_19_34)"/>
<ellipse rx="25.8794" ry="25.8" transform="matrix(0.999976 0.00696831 -0.259802 0.965662 33.5506 36.2656)" fill="url(#paint3_linear_19_34)"/>
<path d="M39.7568 19.8237C39.8426 25.9142 39.8855 28.9595 38.9941 31.1018C37.0867 35.6858 32.3965 39.101 27.4571 39.5028C25.1487 39.6905 22.272 38.7087 16.5187 36.7451C10.7654 34.7815 7.88875 33.7997 6.47876 32.3428C3.46176 29.2256 3.39075 24.1853 6.3041 19.9447C7.66564 17.9628 10.4994 15.8994 16.1669 11.7724C21.8344 7.64544 24.6682 5.58196 26.9696 4.89651C31.894 3.42985 36.6552 5.05484 38.6812 8.89371C39.6281 10.6878 39.671 13.7331 39.7568 19.8237Z" fill="#FF3366"/>
<path d="M39.7568 19.8237C39.8426 25.9142 39.8855 28.9595 38.9941 31.1018C37.0867 35.6858 32.3965 39.101 27.4571 39.5028C25.1487 39.6905 22.272 38.7087 16.5187 36.7451C10.7654 34.7815 7.88875 33.7997 6.47876 32.3428C3.46176 29.2256 3.39075 24.1853 6.3041 19.9447C7.66564 17.9628 10.4994 15.8994 16.1669 11.7724C21.8344 7.64544 24.6682 5.58196 26.9696 4.89651C31.894 3.42985 36.6552 5.05484 38.6812 8.89371C39.6281 10.6878 39.671 13.7331 39.7568 19.8237Z" fill="url(#paint4_linear_19_34)"/>
<path d="M39.7568 19.8237C39.8426 25.9142 39.8855 28.9595 38.9941 31.1018C37.0867 35.6858 32.3965 39.101 27.4571 39.5028C25.1487 39.6905 22.272 38.7087 16.5187 36.7451C10.7654 34.7815 7.88875 33.7997 6.47876 32.3428C3.46176 29.2256 3.39075 24.1853 6.3041 19.9447C7.66564 17.9628 10.4994 15.8994 16.1669 11.7724C21.8344 7.64544 24.6682 5.58196 26.9696 4.89651C31.894 3.42985 36.6552 5.05484 38.6812 8.89371C39.6281 10.6878 39.671 13.7331 39.7568 19.8237Z" fill="url(#paint5_linear_19_34)"/>
<path d="M39.7568 19.8237C39.8426 25.9142 39.8855 28.9595 38.9941 31.1018C37.0867 35.6858 32.3965 39.101 27.4571 39.5028C25.1487 39.6905 22.272 38.7087 16.5187 36.7451C10.7654 34.7815 7.88875 33.7997 6.47876 32.3428C3.46176 29.2256 3.39075 24.1853 6.3041 19.9447C7.66564 17.9628 10.4994 15.8994 16.1669 11.7724C21.8344 7.64544 24.6682 5.58196 26.9696 4.89651C31.894 3.42985 36.6552 5.05484 38.6812 8.89371C39.6281 10.6878 39.671 13.7331 39.7568 19.8237Z" fill="url(#paint6_linear_19_34)"/>
<path d="M39.7568 19.8237C39.8426 25.9142 39.8855 28.9595 38.9941 31.1018C37.0867 35.6858 32.3965 39.101 27.4571 39.5028C25.1487 39.6905 22.272 38.7087 16.5187 36.7451C10.7654 34.7815 7.88875 33.7997 6.47876 32.3428C3.46176 29.2256 3.39075 24.1853 6.3041 19.9447C7.66564 17.9628 10.4994 15.8994 16.1669 11.7724C21.8344 7.64544 24.6682 5.58196 26.9696 4.89651C31.894 3.42985 36.6552 5.05484 38.6812 8.89371C39.6281 10.6878 39.671 13.7331 39.7568 19.8237Z" fill="url(#paint7_linear_19_34)"/>
<path d="M39.7568 19.8237C39.8426 25.9142 39.8855 28.9595 38.9941 31.1018C37.0867 35.6858 32.3965 39.101 27.4571 39.5028C25.1487 39.6905 22.272 38.7087 16.5187 36.7451C10.7654 34.7815 7.88875 33.7997 6.47876 32.3428C3.46176 29.2256 3.39075 24.1853 6.3041 19.9447C7.66564 17.9628 10.4994 15.8994 16.1669 11.7724C21.8344 7.64544 24.6682 5.58196 26.9696 4.89651C31.894 3.42985 36.6552 5.05484 38.6812 8.89371C39.6281 10.6878 39.671 13.7331 39.7568 19.8237Z" fill="url(#paint8_linear_19_34)"/>
<path d="M39.7568 19.8237C39.8426 25.9142 39.8855 28.9595 38.9941 31.1018C37.0867 35.6858 32.3965 39.101 27.4571 39.5028C25.1487 39.6905 22.272 38.7087 16.5187 36.7451C10.7654 34.7815 7.88875 33.7997 6.47876 32.3428C3.46176 29.2256 3.39075 24.1853 6.3041 19.9447C7.66564 17.9628 10.4994 15.8994 16.1669 11.7724C21.8344 7.64544 24.6682 5.58196 26.9696 4.89651C31.894 3.42985 36.6552 5.05484 38.6812 8.89371C39.6281 10.6878 39.671 13.7331 39.7568 19.8237Z" fill="url(#paint9_linear_19_34)"/>
<defs>
<linearGradient id="paint0_linear_19_34" x1="7.42523" y1="9.50543" x2="56.6601" y2="45.6577" gradientUnits="userSpaceOnUse">
<stop stop-color="#F4C95D" stop-opacity="0.28"/>
<stop offset="1" stop-color="#F4C95D" stop-opacity="0"/>
</linearGradient>
<linearGradient id="paint1_linear_19_34" x1="67.2299" y1="16.551" x2="18.9308" y2="16.5821" gradientUnits="userSpaceOnUse">
<stop stop-color="#F87595" stop-opacity="0.22"/>
<stop offset="1" stop-color="#F87595" stop-opacity="0"/>
</linearGradient>
<linearGradient id="paint2_linear_19_34" x1="-14.2623" y1="13.9056" x2="45.3939" y2="46.1827" gradientUnits="userSpaceOnUse">
<stop stop-color="#F87595" stop-opacity="0.86"/>
<stop offset="1" stop-color="#F87595" stop-opacity="0"/>
</linearGradient>
<linearGradient id="paint3_linear_19_34" x1="10.6179" y1="-3.87842" x2="12.443" y2="16.7017" gradientUnits="userSpaceOnUse">
<stop stop-color="#F87595"/>
<stop offset="1" stop-color="#F87595" stop-opacity="0"/>
</linearGradient>
<linearGradient id="paint4_linear_19_34" x1="21" y1="37" x2="21.5" y2="21" gradientUnits="userSpaceOnUse">
<stop stop-color="#F4C95D" stop-opacity="0.44"/>
<stop offset="1" stop-color="#F4C95D" stop-opacity="0"/>
</linearGradient>
<linearGradient id="paint5_linear_19_34" x1="37.5" y1="21.5" x2="20.9969" y2="20.0346" gradientUnits="userSpaceOnUse">
<stop stop-color="#F4C95D" stop-opacity="0.59"/>
<stop offset="1" stop-color="#F4C95D" stop-opacity="0"/>
</linearGradient>
<linearGradient id="paint6_linear_19_34" x1="35" y1="40.5" x2="30.4854" y2="33.5095" gradientUnits="userSpaceOnUse">
<stop stop-color="#FAE9BE" stop-opacity="0.7"/>
<stop offset="1" stop-color="#FFDF8F" stop-opacity="0"/>
</linearGradient>
<linearGradient id="paint7_linear_19_34" x1="44" y1="4.49999" x2="34.5084" y2="8.51987" gradientUnits="userSpaceOnUse">
<stop stop-color="#FFEAB4" stop-opacity="0.74"/>
<stop offset="1" stop-color="#FBD370" stop-opacity="0"/>
</linearGradient>
<linearGradient id="paint8_linear_19_34" x1="44.5" y1="23" x2="35.5" y2="23.0189" gradientUnits="userSpaceOnUse">
<stop stop-color="#FDF0D0" stop-opacity="0.7"/>
<stop offset="1" stop-color="#FFE093" stop-opacity="0"/>
</linearGradient>
<linearGradient id="paint9_linear_19_34" x1="15.5" y1="40" x2="18" y2="33.5" gradientUnits="userSpaceOnUse">
<stop offset="0.104167" stop-color="#F4D890" stop-opacity="0.63"/>
<stop offset="1" stop-color="#F9D783" stop-opacity="0"/>
</linearGradient>
</defs>
</svg>
